<svg width="20" height="19" viewBox="0 0 20 19" fill="none" xmlns="http://www.w3.org/2000/svg">
<path d="M14.9995 0.00395327L12.406 0C9.49228 0 7.60929 1.8353 7.60929 4.67593V6.83184H5.00162C4.77628 6.83184 4.59381 7.00539 4.59381 7.21946V10.3431C4.59381 10.5572 4.77649 10.7306 5.00162 10.7306H7.60929V18.6126C7.60929 18.8267 7.79176 19 8.0171 19H11.4194C11.6447 19 11.8272 18.8265 11.8272 18.6126V10.7306H14.8762C15.1015 10.7306 15.284 10.5572 15.284 10.3431L15.2852 7.21946C15.2852 7.11667 15.2421 7.01824 15.1658 6.9455C15.0894 6.87276 14.9854 6.83184 14.8772 6.83184H11.8272V5.00424C11.8272 4.12583 12.0475 3.6799 13.252 3.6799L14.9991 3.67931C15.2242 3.67931 15.4067 3.50576 15.4067 3.29189V0.391374C15.4067 0.177699 15.2245 0.0043486 14.9995 0.00395327Z" fill="white"/>
</svg>
