<svg width="19" height="19" viewBox="0 0 19 19" fill="none" xmlns="http://www.w3.org/2000/svg">
<g clip-path="url(#clip0_2_788)">
<path d="M18.9814 5.58605C18.9369 4.57651 18.7737 3.88246 18.5398 3.28105C18.2986 2.64267 17.9274 2.07114 17.4411 1.59601C16.966 1.1135 16.3907 0.738563 15.7597 0.501074C15.1548 0.267211 14.4644 0.103956 13.4548 0.0594446C12.4378 0.011164 12.1149 0 9.53527 0C6.95566 0 6.63278 0.011164 5.61947 0.0556749C4.60992 0.100186 3.91587 0.263586 3.31461 0.497305C2.67609 0.738563 2.10455 1.10973 1.62943 1.59601C1.14691 2.07114 0.772124 2.64644 0.534491 3.27743C0.300627 3.88246 0.137372 4.57274 0.0928613 5.58228C0.0445807 6.59936 0.0334167 6.92225 0.0334167 9.50186C0.0334167 12.0815 0.0445807 12.4043 0.0890917 13.4177C0.133603 14.4272 0.297003 15.1213 0.530866 15.7227C0.772124 16.361 1.14691 16.9326 1.62943 17.4077C2.10455 17.8902 2.67986 18.2651 3.31084 18.5026C3.91587 18.7365 4.60615 18.8998 5.61584 18.9443C6.62901 18.9889 6.95204 18.9999 9.53164 18.9999C12.1112 18.9999 12.4341 18.9889 13.4474 18.9443C14.457 18.8998 15.151 18.7365 15.7523 18.5026C17.0292 18.009 18.0387 16.9994 18.5324 15.7227C18.7661 15.1176 18.9295 14.4272 18.974 13.4177C19.0186 12.4043 19.0297 12.0815 19.0297 9.50186C19.0297 6.92225 19.026 6.59936 18.9814 5.58605ZM17.2705 13.3434C17.2296 14.2713 17.0737 14.7724 16.9438 15.1065C16.6245 15.9342 15.9676 16.5911 15.1399 16.9104C14.8058 17.0403 14.3011 17.1962 13.3768 17.2369C12.3747 17.2816 12.0741 17.2926 9.53904 17.2926C7.00394 17.2926 6.69962 17.2816 5.70109 17.2369C4.77318 17.1962 4.2721 17.0403 3.93805 16.9104C3.52615 16.7582 3.15121 16.5169 2.84688 16.2014C2.53139 15.8933 2.29014 15.5221 2.1379 15.1102C2.00799 14.7762 1.85213 14.2713 1.81139 13.3472C1.76673 12.345 1.75571 12.0443 1.75571 9.50925C1.75571 6.97416 1.76673 6.66983 1.81139 5.67145C1.85213 4.74353 2.00799 4.24246 2.1379 3.90841C2.29014 3.49636 2.53139 3.12157 2.85065 2.81709C3.15861 2.5016 3.52977 2.26034 3.94182 2.10825C4.27587 1.97835 4.78072 1.82248 5.70486 1.7816C6.70701 1.73709 7.00771 1.72592 9.54266 1.72592C12.0815 1.72592 12.3821 1.73709 13.3806 1.7816C14.3085 1.82248 14.8096 1.97835 15.1436 2.10825C15.5556 2.26034 15.9305 2.5016 16.2348 2.81709C16.5503 3.12519 16.7916 3.49636 16.9438 3.90841C17.0737 4.24246 17.2296 4.74716 17.2705 5.67145C17.315 6.6736 17.3261 6.97416 17.3261 9.50925C17.3261 12.0443 17.315 12.3413 17.2705 13.3434Z" fill="white"/>
<path d="M9.53532 4.621C6.84074 4.621 4.65448 6.80711 4.65448 9.50184C4.65448 12.1966 6.84074 14.3827 9.53532 14.3827C12.23 14.3827 14.4162 12.1966 14.4162 9.50184C14.4162 6.80711 12.23 4.621 9.53532 4.621ZM9.53532 12.6679C7.78721 12.6679 6.36924 11.2501 6.36924 9.50184C6.36924 7.75359 7.78721 6.33576 9.53532 6.33576C11.2836 6.33576 12.7014 7.75359 12.7014 9.50184C12.7014 11.2501 11.2836 12.6679 9.53532 12.6679Z" fill="white"/>
<path d="M15.7487 4.42806C15.7487 5.0573 15.2385 5.56751 14.6091 5.56751C13.9798 5.56751 13.4696 5.0573 13.4696 4.42806C13.4696 3.79867 13.9798 3.2886 14.6091 3.2886C15.2385 3.2886 15.7487 3.79867 15.7487 4.42806Z" fill="white"/>
</g>
<defs>
<clipPath id="clip0_2_788">
<rect width="19" height="19" fill="white"/>
</clipPath>
</defs>
</svg>
