<svg width="187" height="49" viewBox="0 0 187 49" fill="none" xmlns="http://www.w3.org/2000/svg">
<path d="M23.8889 31.6556C23.8113 31.7333 20.7864 35.4667 15.8225 34.3C11.4015 33.2889 12.022 29.2444 14.6591 29.0889C15.5122 29.0111 16.3654 29.4778 16.7532 30.1778C16.8308 30.3333 16.9083 30.4889 16.9083 30.7222C16.9083 30.7222 17.2186 27.4556 13.0303 26.2889C8.29906 24.9667 5.27417 29.6333 4.96393 30.1778L16.6757 45.0333L35.0577 21.7778L29.2406 14.5444C29.2406 14.5444 24.8196 8.78888 18.1493 12.6778C18.1493 12.6778 14.0386 14.5444 13.7283 20.4556C13.7283 20.4556 15.7449 15.4 21.3293 17.4222C26.9137 19.4444 23.9664 27.9222 22.0274 29.6333C20.0884 31.4222 18.2269 32.0444 16.0552 32.2778C16.0552 32.2778 18.1493 33.0556 21.0191 32.1222C21.0191 32.1222 20.0884 32.9 18.7698 33.2111C18.8474 33.2111 22.5703 33.0556 23.8889 31.6556Z" fill="#1A1413"/>
<path d="M3.8005 26.2889L1.70635 23.7222L18.6922 2.33333L19.7005 3.5L21.4844 3.57778L18.7698 0L0 23.8L2.01659 26.2889H3.8005Z" fill="#1A1413"/>
<path d="M14.7366 46.2778L16.9083 49L38.2377 21.7L35.9884 18.8222H34.2045L36.4538 21.7L16.9083 46.7444L16.443 46.2L14.7366 46.2778Z" fill="#1A1413"/>
<path d="M61.9714 26.7556C61.9714 29.7111 59.8772 32.1222 57.2401 32.1222H47.0796V15.2444H56.4645C58.7138 15.2444 60.4977 17.2667 60.4977 19.7556C60.4977 20.6889 60.265 21.5444 59.8772 22.1667C61.1182 23.2556 61.9714 24.8111 61.9714 26.7556ZM49.7167 21.3111H56.4645C57.2401 21.3111 57.8606 20.6111 57.8606 19.7556C57.8606 18.9 57.2401 18.2 56.4645 18.2H49.7167V21.3111ZM57.2401 29.0111C58.4036 29.0111 59.3343 27.9222 59.3343 26.6778C59.3343 25.3556 58.4036 24.3444 57.2401 24.3444H49.7167V29.0889L57.2401 29.0111Z" fill="#1A1413"/>
<path d="M79.5002 32.0444H76.5529L75.1568 29.0889L71.8992 21.8556L68.6416 29.0889L67.3231 32.0444H64.2982L65.6943 29.0889L71.8992 15.2444L78.1817 29.0889L79.5002 32.0444Z" fill="#1A1413"/>
<path d="M82.9905 23.6444C82.9905 26.6 85.1622 29.0111 87.7993 29.0111H95.2451V32.0444H87.7993C83.6885 32.0444 80.3534 28.3111 80.3534 23.6444C80.3534 18.9778 83.6885 15.2444 87.7993 15.2444H95.2451V18.2778H87.7993C85.1622 18.2778 82.9905 20.6889 82.9905 23.6444Z" fill="#1A1413"/>
<path d="M107.345 22.0111L113.782 32.0444H110.525L105.406 24.0333L101.605 27.9222V32.0444H98.9681V15.2444H101.605V23.8778L103.777 21.6222L105.793 19.6L109.904 15.2444H113.86L107.345 22.0111Z" fill="#1A1413"/>
<path d="M134.491 28.4667L133.483 32.0444L131.544 29.0111L128.596 24.4222L125.649 29.0111L123.71 32.0444L122.702 28.4667L119.289 15.2444H122.004L124.718 25.4333L126.968 21.8556L127.433 21.2333L128.596 19.3667L129.837 21.2333L130.225 21.8556L132.474 25.4333L135.189 15.2444H137.981L134.491 28.4667Z" fill="#1A1413"/>
<path d="M152.563 32.0444H149.538L148.219 29.0889L144.962 21.8556L141.704 29.0889L140.308 32.0444H137.361L138.679 29.0889L144.962 15.2444L151.167 29.0889L152.563 32.0444Z" fill="#1A1413"/>
<path d="M165.671 19.9111V19.8333C165.671 18.9778 165.05 18.2778 164.275 18.2778H158.225C157.449 18.2778 156.829 18.9778 156.829 19.8333V19.9111C156.829 20.7666 157.449 21.4666 158.225 21.4666H163.577C164.973 21.4666 166.214 22.1666 167.067 23.1778C167.144 23.2555 167.144 23.3333 167.222 23.4111C167.92 24.3444 168.308 25.5111 168.308 26.7555C168.308 29.7111 166.214 32.0444 163.577 32.0444H158.923C156.286 32.0444 154.192 29.6333 154.192 26.7555H156.829C156.829 28 157.759 29.0889 158.845 29.0889H163.499C164.662 29.0889 165.593 28.0778 165.593 26.7555C165.593 25.5111 164.662 24.4222 163.499 24.4222H158.147C157.061 24.4222 156.053 23.9555 155.355 23.1778C155.2 22.9444 154.967 22.7111 154.812 22.4778C154.347 21.7778 154.114 20.8444 154.114 19.9111V19.8333C154.114 17.3444 155.898 15.3222 158.147 15.3222H164.197C166.446 15.3222 168.23 17.3444 168.23 19.8333V19.9111H165.671Z" fill="#1A1413"/>
<path d="M187 15.2444V32.0444H184.363V24.3444H174.745V32.0444H172.108V15.2444H174.745V21.3889H184.363V15.2444H187Z" fill="#1A1413"/>
</svg>
