<svg width="25" height="17" viewBox="0 0 25 17" fill="none" xmlns="http://www.w3.org/2000/svg">
<path d="M12.4991 16.8905C12.497 16.8905 12.4947 16.8905 12.4924 16.8905C11.7381 16.8858 5.06919 16.8304 3.17976 16.365C1.8593 16.0417 0.816936 15.0934 0.461024 13.8905C-0.0333617 12.2001 -0.00189032 8.94543 0.00154292 8.68555C-0.00169958 8.42688 -0.0335524 5.14532 0.459498 3.44095C0.460071 3.43939 0.460452 3.43765 0.461024 3.43609C0.812931 2.24698 1.87876 1.26929 3.17652 0.945125C3.17976 0.944257 3.1832 0.943562 3.18644 0.942693C5.0545 0.495539 11.7365 0.440817 12.4924 0.436127H12.506C13.2622 0.440817 19.9488 0.496234 21.8209 0.962323C23.1379 1.28475 24.1795 2.23187 24.5364 3.43314C25.0493 5.13872 25.0018 8.4274 24.9966 8.70501C25.0003 8.97844 25.0302 12.2039 24.5387 13.9029C24.5383 13.9046 24.5377 13.9062 24.5373 13.9077C24.1812 15.1106 23.1391 16.0589 21.8171 16.3825C21.8154 16.3831 21.8135 16.3834 21.8117 16.3839C19.9439 16.8309 13.2617 16.8856 12.506 16.8905C12.5037 16.8905 12.5014 16.8905 12.4991 16.8905ZM2.3474 3.89714C1.91328 5.40155 1.95429 8.64125 1.95467 8.67391V8.69736C1.9417 9.59584 1.98729 12.1978 2.34759 13.4302C2.5223 14.0203 3.03633 14.4878 3.68827 14.6474C5.08235 14.9909 10.5139 15.0989 12.4991 15.1116C14.4894 15.0989 19.929 14.9938 21.3128 14.6641C21.9626 14.5039 22.4749 14.038 22.6508 13.4472C23.0115 12.1968 23.0567 9.60748 23.0435 8.71474C23.0435 8.70535 23.0435 8.69597 23.0437 8.68659C23.0616 7.77734 23.0263 5.14497 22.6525 3.9027C22.6521 3.90149 22.6517 3.90027 22.6516 3.89905C22.4761 3.30632 21.9619 2.83884 21.3099 2.67919C19.9294 2.3354 14.489 2.2277 12.4991 2.21502C10.5101 2.2277 5.07586 2.33262 3.68788 2.662C3.04835 2.82356 2.52268 3.30771 2.3474 3.89714ZM23.5944 13.6763H23.5949H23.5944ZM10.0098 12.2654V5.06106L16.8458 8.66331L10.0098 12.2654Z" fill="white"/>
</svg>
